<svg xmlns="http://www.w3.org/2000/svg" xmlns:xlink="http://www.w3.org/1999/xlink" contentStyleType="text/css" height="435px" preserveAspectRatio="none" style="width:548px;height:435px;background:#FFFFFF;" version="1.1" viewBox="0 0 548 435" width="548px" zoomAndPan="magnify"><defs/><g><!--cluster f128341602568cdff1c9f8b4d2340a5a--><g id="cluster_f128341602568cdff1c9f8b4d2340a5a"><path d="M204.5,6 L312.5,6 A3.75,3.75 0 0 1 315,8.5 L322,28.2969 L438.5,28.2969 A2.5,2.5 0 0 1 441,30.7969 L441,133.39 A2.5,2.5 0 0 1 438.5,135.89 L204.5,135.89 A2.5,2.5 0 0 1 202,133.39 L202,8.5 A2.5,2.5 0 0 1 204.5,6 " fill="none" style="stroke:#000000;stroke-width:1.5;"/><line style="stroke:#000000;stroke-width:1.5;" x1="202" x2="322" y1="28.2969" y2="28.2969"/><text fill="#000000" font-family="sans-serif" font-size="14" font-weight="bold" lengthAdjust="spacing" textLength="107" x="206" y="20.9951">hackeryesno/</text></g><!--cluster 87026d5a8779d91f2f55b60eee1e629b--><g id="cluster_87026d5a8779d91f2f55b60eee1e629b"><path d="M8.5,159.89 L50.5,159.89 A3.75,3.75 0 0 1 53,162.39 L60,182.1869 L373.5,182.1869 A2.5,2.5 0 0 1 376,184.6869 L376,426.17 A2.5,2.5 0 0 1 373.5,428.67 L8.5,428.67 A2.5,2.5 0 0 1 6,426.17 L6,162.39 A2.5,2.5 0 0 1 8.5,159.89 " fill="none" style="stroke:#000000;stroke-width:1.5;"/><line style="stroke:#000000;stroke-width:1.5;" x1="6" x2="60" y1="182.1869" y2="182.1869"/><text fill="#000000" font-family="sans-serif" font-size="14" font-weight="bold" lengthAdjust="spacing" textLength="41" x="10" y="174.8851">links/</text></g><!--entity 11513d9b7a448cf96a57ee65642f3821--><g id="elem_11513d9b7a448cf96a57ee65642f3821"><rect fill="#F1F1F1" height="78.8906" rx="2.5" ry="2.5" style="stroke:#181818;stroke-width:0.5;" width="70" x="218" y="41"/><rect fill="#F1F1F1" height="10" style="stroke:#181818;stroke-width:0.5;" width="15" x="268" y="46"/><rect fill="#F1F1F1" height="2" style="stroke:#181818;stroke-width:0.5;" width="4" x="266" y="48"/><rect fill="#F1F1F1" height="2" style="stroke:#181818;stroke-width:0.5;" width="4" x="266" y="52"/><text fill="#000000" font-family="sans-serif" font-size="14" font-weight="bold" lengthAdjust="spacing" textLength="30" x="233" y="73.9951">urls</text><text fill="#000000" font-family="sans-serif" font-size="14" lengthAdjust="spacing" textLength="4" x="233" y="90.292">&#160;</text><text fill="#000000" font-family="sans-serif" font-size="14" lengthAdjust="spacing" textLength="4" x="233" y="106.5889">&#160;</text></g><!--entity ecde5be898a0308c9b73a4f80d967ee0--><g id="elem_ecde5be898a0308c9b73a4f80d967ee0"><rect fill="#F1F1F1" height="78.8906" rx="2.5" ry="2.5" style="stroke:#181818;stroke-width:0.5;" width="101" x="323.5" y="41"/><rect fill="#F1F1F1" height="10" style="stroke:#181818;stroke-width:0.5;" width="15" x="404.5" y="46"/><rect fill="#F1F1F1" height="2" style="stroke:#181818;stroke-width:0.5;" width="4" x="402.5" y="48"/><rect fill="#F1F1F1" height="2" style="stroke:#181818;stroke-width:0.5;" width="4" x="402.5" y="52"/><text fill="#000000" font-family="sans-serif" font-size="14" font-weight="bold" lengthAdjust="spacing" textLength="61" x="338.5" y="73.9951">schema</text><text fill="#000000" font-family="sans-serif" font-size="14" lengthAdjust="spacing" textLength="4" x="338.5" y="90.292">&#160;</text><text fill="#000000" font-family="sans-serif" font-size="14" lengthAdjust="spacing" textLength="4" x="338.5" y="106.5889">&#160;</text></g><!--entity 70025629619750232ba18907557a29cf--><g id="elem_70025629619750232ba18907557a29cf"><rect fill="#F1F1F1" height="78.8906" rx="2.5" ry="2.5" style="stroke:#181818;stroke-width:0.5;" width="101" x="258.5" y="194.89"/><rect fill="#F1F1F1" height="10" style="stroke:#181818;stroke-width:0.5;" width="15" x="339.5" y="199.89"/><rect fill="#F1F1F1" height="2" style="stroke:#181818;stroke-width:0.5;" width="4" x="337.5" y="201.89"/><rect fill="#F1F1F1" height="2" style="stroke:#181818;stroke-width:0.5;" width="4" x="337.5" y="205.89"/><text fill="#000000" font-family="sans-serif" font-size="14" font-weight="bold" lengthAdjust="spacing" textLength="61" x="273.5" y="227.8851">schema</text><text fill="#000000" font-family="sans-serif" font-size="14" lengthAdjust="spacing" textLength="4" x="273.5" y="244.182">&#160;</text><text fill="#000000" font-family="sans-serif" font-size="14" lengthAdjust="spacing" textLength="4" x="273.5" y="260.4789">&#160;</text></g><!--entity 3d9a4dd9e831606878036cd6c3278ad0--><g id="elem_3d9a4dd9e831606878036cd6c3278ad0"><rect fill="#F1F1F1" height="78.8906" rx="2.5" ry="2.5" style="stroke:#181818;stroke-width:0.5;" width="86" x="22" y="194.89"/><rect fill="#F1F1F1" height="10" style="stroke:#181818;stroke-width:0.5;" width="15" x="88" y="199.89"/><rect fill="#F1F1F1" height="2" style="stroke:#181818;stroke-width:0.5;" width="4" x="86" y="201.89"/><rect fill="#F1F1F1" height="2" style="stroke:#181818;stroke-width:0.5;" width="4" x="86" y="205.89"/><text fill="#000000" font-family="sans-serif" font-size="14" font-weight="bold" lengthAdjust="spacing" textLength="46" x="37" y="227.8851">views</text><text fill="#000000" font-family="sans-serif" font-size="14" lengthAdjust="spacing" textLength="4" x="37" y="244.182">&#160;</text><text fill="#000000" font-family="sans-serif" font-size="14" lengthAdjust="spacing" textLength="4" x="37" y="260.4789">&#160;</text></g><!--entity 3bf61083601823ff6a43135388fa1775--><g id="elem_3bf61083601823ff6a43135388fa1775"><rect fill="#F1F1F1" height="78.8906" rx="2.5" ry="2.5" style="stroke:#181818;stroke-width:0.5;" width="80" x="143" y="194.89"/><rect fill="#F1F1F1" height="10" style="stroke:#181818;stroke-width:0.5;" width="15" x="203" y="199.89"/><rect fill="#F1F1F1" height="2" style="stroke:#181818;stroke-width:0.5;" width="4" x="201" y="201.89"/><rect fill="#F1F1F1" height="2" style="stroke:#181818;stroke-width:0.5;" width="4" x="201" y="205.89"/><text fill="#000000" font-family="sans-serif" font-size="14" font-weight="bold" lengthAdjust="spacing" textLength="40" x="158" y="227.8851">tests</text><text fill="#000000" font-family="sans-serif" font-size="14" lengthAdjust="spacing" textLength="4" x="158" y="244.182">&#160;</text><text fill="#000000" font-family="sans-serif" font-size="14" lengthAdjust="spacing" textLength="4" x="158" y="260.4789">&#160;</text></g><!--entity 07883b892d8509b1bcfda844145b0268--><g id="elem_07883b892d8509b1bcfda844145b0268"><rect fill="#F1F1F1" height="78.8906" rx="2.5" ry="2.5" style="stroke:#181818;stroke-width:0.5;" width="78" x="25" y="333.78"/><rect fill="#F1F1F1" height="10" style="stroke:#181818;stroke-width:0.5;" width="15" x="83" y="338.78"/><rect fill="#F1F1F1" height="2" style="stroke:#181818;stroke-width:0.5;" width="4" x="81" y="340.78"/><rect fill="#F1F1F1" height="2" style="stroke:#181818;stroke-width:0.5;" width="4" x="81" y="344.78"/><text fill="#000000" font-family="sans-serif" font-size="14" font-weight="bold" lengthAdjust="spacing" textLength="38" x="40" y="366.7751">apps</text><text fill="#000000" font-family="sans-serif" font-size="14" lengthAdjust="spacing" textLength="4" x="40" y="383.072">&#160;</text><text fill="#000000" font-family="sans-serif" font-size="14" lengthAdjust="spacing" textLength="4" x="40" y="399.3689">&#160;</text></g><!--entity 35f7e9459ab57d16d3c14bd40264556f--><g id="elem_35f7e9459ab57d16d3c14bd40264556f"><rect fill="#F1F1F1" height="78.8906" rx="2.5" ry="2.5" style="stroke:#181818;stroke-width:0.5;" width="97" x="259.5" y="333.78"/><rect fill="#F1F1F1" height="10" style="stroke:#181818;stroke-width:0.5;" width="15" x="336.5" y="338.78"/><rect fill="#F1F1F1" height="2" style="stroke:#181818;stroke-width:0.5;" width="4" x="334.5" y="340.78"/><rect fill="#F1F1F1" height="2" style="stroke:#181818;stroke-width:0.5;" width="4" x="334.5" y="344.78"/><text fill="#000000" font-family="sans-serif" font-size="14" font-weight="bold" lengthAdjust="spacing" textLength="57" x="274.5" y="366.7751">models</text><text fill="#000000" font-family="sans-serif" font-size="14" lengthAdjust="spacing" textLength="4" x="274.5" y="383.072">&#160;</text><text fill="#000000" font-family="sans-serif" font-size="14" lengthAdjust="spacing" textLength="4" x="274.5" y="399.3689">&#160;</text></g><!--entity 2f5668400d3a272b616119ed16090c30--><g id="elem_2f5668400d3a272b616119ed16090c30"><rect fill="#F1F1F1" height="78.8906" rx="2.5" ry="2.5" style="stroke:#181818;stroke-width:0.5;" width="87" x="137.5" y="333.78"/><rect fill="#F1F1F1" height="10" style="stroke:#181818;stroke-width:0.5;" width="15" x="204.5" y="338.78"/><rect fill="#F1F1F1" height="2" style="stroke:#181818;stroke-width:0.5;" width="4" x="202.5" y="340.78"/><rect fill="#F1F1F1" height="2" style="stroke:#181818;stroke-width:0.5;" width="4" x="202.5" y="344.78"/><text fill="#000000" font-family="sans-serif" font-size="14" font-weight="bold" lengthAdjust="spacing" textLength="47" x="152.5" y="366.7751">admin</text><text fill="#000000" font-family="sans-serif" font-size="14" lengthAdjust="spacing" textLength="4" x="152.5" y="383.072">&#160;</text><text fill="#000000" font-family="sans-serif" font-size="14" lengthAdjust="spacing" textLength="4" x="152.5" y="399.3689">&#160;</text></g><!--entity 32bd8267099f6a521c2589cbf3e45b49--><g id="elem_32bd8267099f6a521c2589cbf3e45b49"><rect fill="#F1F1F1" height="78.8906" rx="2.5" ry="2.5" style="stroke:#181818;stroke-width:0.5;" width="151" x="391.5" y="333.78"/><rect fill="#F1F1F1" height="10" style="stroke:#181818;stroke-width:0.5;" width="15" x="522.5" y="338.78"/><rect fill="#F1F1F1" height="2" style="stroke:#181818;stroke-width:0.5;" width="4" x="520.5" y="340.78"/><rect fill="#F1F1F1" height="2" style="stroke:#181818;stroke-width:0.5;" width="4" x="520.5" y="344.78"/><text fill="#000000" font-family="sans-serif" font-size="14" font-weight="bold" lengthAdjust="spacing" textLength="111" x="406.5" y="366.7751">users/schema</text><text fill="#000000" font-family="sans-serif" font-size="14" lengthAdjust="spacing" textLength="4" x="406.5" y="383.072">&#160;</text><text fill="#000000" font-family="sans-serif" font-size="14" lengthAdjust="spacing" textLength="4" x="406.5" y="399.3689">&#160;</text></g><!--link ecde5be898a0308c9b73a4f80d967ee0 to 70025629619750232ba18907557a29cf--><g id="link_ecde5be898a0308c9b73a4f80d967ee0_70025629619750232ba18907557a29cf"><path codeLine="51" d="M357.43,120.16 C347.69,142.93 337.7712,166.1041 328.0112,188.9041 " fill="none" id="ecde5be898a0308c9b73a4f80d967ee0-to-70025629619750232ba18907557a29cf" style="stroke:#181818;stroke-width:1.0;"/><polygon fill="#181818" points="325.65,194.42,332.869,187.7203,327.6176,189.8234,325.5145,184.5721,325.65,194.42" style="stroke:#181818;stroke-width:1.0;"/></g><!--link ecde5be898a0308c9b73a4f80d967ee0 to 32bd8267099f6a521c2589cbf3e45b49--><g id="link_ecde5be898a0308c9b73a4f80d967ee0_32bd8267099f6a521c2589cbf3e45b49"><path codeLine="52" d="M386.45,120.36 C404.26,176.07 435.0219,272.2453 452.8019,327.8253 " fill="none" id="ecde5be898a0308c9b73a4f80d967ee0-to-32bd8267099f6a521c2589cbf3e45b49" style="stroke:#181818;stroke-width:1.0;"/><polygon fill="#181818" points="454.63,333.54,455.6976,323.7492,453.1066,328.7777,448.078,326.1867,454.63,333.54" style="stroke:#181818;stroke-width:1.0;"/></g><!--link 70025629619750232ba18907557a29cf to 32bd8267099f6a521c2589cbf3e45b49--><g id="link_70025629619750232ba18907557a29cf_32bd8267099f6a521c2589cbf3e45b49"><path codeLine="53" d="M353.85,274.2 C375.29,292.77 396.3544,311.0221 417.7744,329.5721 " fill="none" id="70025629619750232ba18907557a29cf-to-32bd8267099f6a521c2589cbf3e45b49" style="stroke:#181818;stroke-width:1.0;"/><polygon fill="#181818" points="422.31,333.5,418.1252,324.5844,418.5303,330.2268,412.888,330.6319,422.31,333.5" style="stroke:#181818;stroke-width:1.0;"/></g><!--link 70025629619750232ba18907557a29cf to 35f7e9459ab57d16d3c14bd40264556f--><g id="link_70025629619750232ba18907557a29cf_35f7e9459ab57d16d3c14bd40264556f"><path codeLine="54" d="M308.72,274.2 C308.58,292.85 308.4651,309.1302 308.3251,327.7402 " fill="none" id="70025629619750232ba18907557a29cf-to-35f7e9459ab57d16d3c14bd40264556f" style="stroke:#181818;stroke-width:1.0;"/><polygon fill="#181818" points="308.28,333.74,312.3476,324.7703,308.3176,328.7401,304.3478,324.7102,308.28,333.74" style="stroke:#181818;stroke-width:1.0;"/></g><!--SRC=[hPB1RXin34Jl-nMB70q44IMH8Y_vaI87Ig8I8_RQyBf9YwB_NjLRD0aSO7leZPStdE5GTxl3wtxxRJiz3aSjp_feuyrJ7-pqtURfS7SpwZmsy1mYaFD8N6fhKAHnZjM7w1Hr_36Km_vuc6mwZm08eKfE6YEN9gIOp0Wf-XROm_Xbs6o-ddRpPZCCmyCxqaerpCR2weBZqZM2niQk2dK9To7dycHx_SF-V3EzsqxFysANa_DKKJabgGBDDyHCpip0o4l-O3Uvtwcy44X2vuFF2Ymk8IRrKjhrqZUsnzHOgnY7VXpYn2vGgLI2JwnrCVoojTVhh24t0iU17B0FhP760043SrD82I_esURpDUeISyWilZ8woP1BgyenGiJSW_C5rUFnawNOaab4qOof0jLG8EOQEnKHQScwFrJxf9n-H2AEpjMWFlbCG01YNSM9As79gdM_dVvsyswnpvKz9IVIawA7uf6bv1Qicuwo_CHif_dkmwbNF-AstjwlLlYFCcicXzLN-QyoArtz0W00]--></g></svg>