<svg xmlns="http://www.w3.org/2000/svg" xmlns:xlink="http://www.w3.org/1999/xlink" contentStyleType="text/css" height="603px" preserveAspectRatio="none" style="width:441px;height:603px;background:#FFFFFF;" version="1.1" viewBox="0 0 441 603" width="441px" zoomAndPan="magnify"><defs/><g><!--cluster d2a57dc1d883fd21fb9951699df71cc7--><g id="cluster_d2a57dc1d883fd21fb9951699df71cc7"><polygon fill="none" points="16,16,26,6,373,6,373,485.18,363,495.18,16,495.18,16,16" style="stroke:#181818;stroke-width:1.0;"/><line style="stroke:#181818;stroke-width:1.0;" x1="363" x2="373" y1="16" y2="6"/><line style="stroke:#181818;stroke-width:1.0;" x1="16" x2="363" y1="16" y2="16"/><line style="stroke:#181818;stroke-width:1.0;" x1="363" x2="363" y1="16" y2="495.18"/><text fill="#000000" font-family="sans-serif" font-size="14" font-weight="bold" lengthAdjust="spacing" textLength="31" x="175" y="31.9951">App</text></g><!--entity 893aba7f849e8e7e9eba282605c4877b--><g id="elem_893aba7f849e8e7e9eba282605c4877b"><rect fill="#F1F1F1" height="78.8906" rx="2.5" ry="2.5" style="stroke:#181818;stroke-width:0.5;" width="69" x="232.5" y="46"/><rect fill="#F1F1F1" height="10" style="stroke:#181818;stroke-width:0.5;" width="15" x="281.5" y="51"/><rect fill="#F1F1F1" height="2" style="stroke:#181818;stroke-width:0.5;" width="4" x="279.5" y="53"/><rect fill="#F1F1F1" height="2" style="stroke:#181818;stroke-width:0.5;" width="4" x="279.5" y="57"/><text fill="#000000" font-family="sans-serif" font-size="14" font-weight="bold" lengthAdjust="spacing" textLength="29" x="247.5" y="78.9951">app</text><text fill="#000000" font-family="sans-serif" font-size="14" lengthAdjust="spacing" textLength="4" x="247.5" y="95.292">&#160;</text><text fill="#000000" font-family="sans-serif" font-size="14" lengthAdjust="spacing" textLength="4" x="247.5" y="111.5889">&#160;</text></g><!--entity 3ef9b52d9eb49b7db9d6a3e84fef0d1c--><g id="elem_3ef9b52d9eb49b7db9d6a3e84fef0d1c"><ellipse cx="330" cy="214.89" fill="#F1F1F1" rx="8" ry="8" style="stroke:#181818;stroke-width:0.5;"/><text fill="#000000" font-family="sans-serif" font-size="14" lengthAdjust="spacing" textLength="36" x="312" y="244.8851">8000</text></g><!--entity f368b66c304a6591d917e25e247e5213--><g id="elem_f368b66c304a6591d917e25e247e5213"><rect fill="#F1F1F1" height="39.2969" rx="2.5" ry="2.5" style="stroke:#181818;stroke-width:0.5;" width="218" x="32" y="439.89"/><polygon fill="#F1F1F1" points="233,444.89,233,458.89,245,458.89,245,450.89,239,444.89,233,444.89" style="stroke:#181818;stroke-width:0.5;"/><line style="stroke:#181818;stroke-width:0.5;" x1="239" x2="239" y1="444.89" y2="450.89"/><line style="stroke:#181818;stroke-width:0.5;" x1="245" x2="239" y1="450.89" y2="450.89"/><text fill="#000000" font-family="sans-serif" font-size="14" lengthAdjust="spacing" textLength="188" x="42" y="465.8851">/hackeryesno/hackeryesno</text></g><!--entity 643054541c76b380a864b85d3a6b47ff--><g id="elem_643054541c76b380a864b85d3a6b47ff"><rect fill="#F1F1F1" height="39.2969" rx="2.5" ry="2.5" style="stroke:#181818;stroke-width:0.5;" width="72" x="285" y="439.89"/><polygon fill="#F1F1F1" points="340,444.89,340,458.89,352,458.89,352,450.89,346,444.89,340,444.89" style="stroke:#181818;stroke-width:0.5;"/><line style="stroke:#181818;stroke-width:0.5;" x1="346" x2="346" y1="444.89" y2="450.89"/><line style="stroke:#181818;stroke-width:0.5;" x1="352" x2="346" y1="450.89" y2="450.89"/><text fill="#000000" font-family="sans-serif" font-size="14" lengthAdjust="spacing" textLength="42" x="295" y="465.8851">/static</text></g><!--entity 1624c420083928ef3e240dd88f2e52f0--><g id="elem_1624c420083928ef3e240dd88f2e52f0"><ellipse cx="416" cy="349.89" fill="#F1F1F1" rx="8" ry="8" style="stroke:#181818;stroke-width:0.5;"/><text fill="#000000" font-family="sans-serif" font-size="14" lengthAdjust="spacing" textLength="36" x="398" y="379.8851">8000</text></g><!--entity 8b9f3e1b1365f85e28d7092937621d2f--><g id="elem_8b9f3e1b1365f85e28d7092937621d2f"><rect fill="#F1F1F1" height="39.2969" rx="2.5" ry="2.5" style="stroke:#181818;stroke-width:0.5;" width="128" x="77" y="558.18"/><polygon fill="#F1F1F1" points="188,563.18,188,577.18,200,577.18,200,569.18,194,563.18,188,563.18" style="stroke:#181818;stroke-width:0.5;"/><line style="stroke:#181818;stroke-width:0.5;" x1="194" x2="194" y1="563.18" y2="569.18"/><line style="stroke:#181818;stroke-width:0.5;" x1="200" x2="194" y1="569.18" y2="569.18"/><text fill="#000000" font-family="sans-serif" font-size="14" lengthAdjust="spacing" textLength="98" x="87" y="584.1751">./hackeryesno</text></g><!--entity c0094e709fbe68c3666035bc1bb1bbf6--><g id="elem_c0094e709fbe68c3666035bc1bb1bbf6"><rect fill="#F1F1F1" height="39.2969" rx="2.5" ry="2.5" style="stroke:#181818;stroke-width:0.5;" width="76" x="283" y="558.18"/><polygon fill="#F1F1F1" points="342,563.18,342,577.18,354,577.18,354,569.18,348,563.18,342,563.18" style="stroke:#181818;stroke-width:0.5;"/><line style="stroke:#181818;stroke-width:0.5;" x1="348" x2="348" y1="563.18" y2="569.18"/><line style="stroke:#181818;stroke-width:0.5;" x1="354" x2="348" y1="569.18" y2="569.18"/><text fill="#000000" font-family="sans-serif" font-size="14" lengthAdjust="spacing" textLength="46" x="293" y="584.1751">./static</text></g><!--link 893aba7f849e8e7e9eba282605c4877b to 3ef9b52d9eb49b7db9d6a3e84fef0d1c--><g id="link_893aba7f849e8e7e9eba282605c4877b_3ef9b52d9eb49b7db9d6a3e84fef0d1c"><path codeLine="15" d="M286.24,125.37 C300.43,154.07 318.54,190.71 326.25,206.31 " fill="none" id="893aba7f849e8e7e9eba282605c4877b-3ef9b52d9eb49b7db9d6a3e84fef0d1c" style="stroke:#181818;stroke-width:1.0;"/></g><!--link 3ef9b52d9eb49b7db9d6a3e84fef0d1c to 1624c420083928ef3e240dd88f2e52f0--><g id="link_3ef9b52d9eb49b7db9d6a3e84fef0d1c_1624c420083928ef3e240dd88f2e52f0"><path codeLine="16" d="M335.12,223.81 C350.45,247.52 395.86,317.74 411.01,341.17 " fill="none" id="3ef9b52d9eb49b7db9d6a3e84fef0d1c-1624c420083928ef3e240dd88f2e52f0" style="stroke:#181818;stroke-width:1.0;"/></g><!--link f368b66c304a6591d917e25e247e5213 to 8b9f3e1b1365f85e28d7092937621d2f--><g id="link_f368b66c304a6591d917e25e247e5213_8b9f3e1b1365f85e28d7092937621d2f"><path codeLine="17" d="M141,479.48 C141,501.1 141,536.27 141,557.9 " fill="none" id="f368b66c304a6591d917e25e247e5213-8b9f3e1b1365f85e28d7092937621d2f" style="stroke:#181818;stroke-width:1.0;"/><text fill="#000000" font-family="sans-serif" font-size="13" lengthAdjust="spacing" textLength="14" x="142" y="524.2469">rw</text></g><!--link 893aba7f849e8e7e9eba282605c4877b to f368b66c304a6591d917e25e247e5213--><g id="link_893aba7f849e8e7e9eba282605c4877b_f368b66c304a6591d917e25e247e5213"><path codeLine="18" d="M253.87,125.21 C227.08,204.32 168.9244,376.077 149.2744,434.107 " fill="none" id="893aba7f849e8e7e9eba282605c4877b-to-f368b66c304a6591d917e25e247e5213" style="stroke:#181818;stroke-width:1.0;stroke-dasharray:7.0,7.0;"/><polygon fill="#181818" points="147.35,439.79,154.0252,432.5484,148.9536,435.0541,146.4479,429.9825,147.35,439.79" style="stroke:#181818;stroke-width:1.0;"/><text fill="#000000" font-family="sans-serif" font-size="13" lengthAdjust="spacing" textLength="23" x="204" y="286.9569">use</text></g><!--link 643054541c76b380a864b85d3a6b47ff to c0094e709fbe68c3666035bc1bb1bbf6--><g id="link_643054541c76b380a864b85d3a6b47ff_c0094e709fbe68c3666035bc1bb1bbf6"><path codeLine="19" d="M321,479.48 C321,501.1 321,536.27 321,557.9 " fill="none" id="643054541c76b380a864b85d3a6b47ff-c0094e709fbe68c3666035bc1bb1bbf6" style="stroke:#181818;stroke-width:1.0;"/><text fill="#000000" font-family="sans-serif" font-size="13" lengthAdjust="spacing" textLength="14" x="322" y="524.2469">rw</text></g><!--link 893aba7f849e8e7e9eba282605c4877b to 643054541c76b380a864b85d3a6b47ff--><g id="link_893aba7f849e8e7e9eba282605c4877b_643054541c76b380a864b85d3a6b47ff"><path codeLine="20" d="M271.24,125.32 C274.82,157.22 280.28,203.54 286,243.89 C296.28,316.41 310.0403,396.3708 316.6103,433.7108 " fill="none" id="893aba7f849e8e7e9eba282605c4877b-to-643054541c76b380a864b85d3a6b47ff" style="stroke:#181818;stroke-width:1.0;stroke-dasharray:7.0,7.0;"/><polygon fill="#181818" points="317.65,439.62,320.0299,430.063,316.7836,434.6956,312.1509,431.4493,317.65,439.62" style="stroke:#181818;stroke-width:1.0;"/><text fill="#000000" font-family="sans-serif" font-size="13" lengthAdjust="spacing" textLength="23" x="293" y="286.9569">use</text></g><!--SRC=[bP7DJkGm48JlVWehfsKaWd_RxJsin7EWFRZjRXW1IJIJ5I34kvEDzZ1e3nQI3pwugZvNbQUd-UNv-7gSxjKqDzR3xR8CkfnrSoMcLcr3zDAS5SevMiYvIRAr9lskT9sVbtdYQTMOVQ6I14DcvCIPgJXqO68Dc1BfEtKub6Kv79HIlzMFApsWCMPFyYoPeckR9cHAZNA3uXc3i9XcgogdzIYbhdguUIZraKzlV9xco_lk8nwG0AeteK3CjcMRs4Ls8N5qrb_wdDUo7kikW-1D337Oce0yce8G26Fp1IWa4VNn5TU22pKuOz1dXon-2p1jgqdS5YFc8cRyZn4fRm9BraCKtDYm9PDTzWcSRKw-Y2yWgp4vyFPKY06h1m3Z8rLBj1q1rHtWkbttc-uzs5sw1VI6s5rwJUYVUZYz3FsFZMCRnr_TzV_w_Jdpe7fxxtIzlhzBrmtzH_S9]--></g></svg>